PathFileType	4	(X/Y/Z)	./resultDataOpenSim/trcMotMarkerGrf/sub10/qtm-14-01.trc
DataRate	CameraRate	NumFrames	NumMarkers	Units	OrigDataRate	OrigDataStartFrame	OrigNumFrames
250.000000	250.000000	8	24	m	250.000000	398	454
Frame#	Time	L.Toe.Tip			R.Toe.Tip			L.Ankle.Lat			R.Ankle.Lat			L.Ankle.Med			R.Ankle.Med			L.Heel			R.Heel			L.Knee.Lat			R.Knee.Lat			L.Knee.Med			R.Knee.Med			L.Thigh.Upper			R.Thigh.Upper			L.ASIS			R.ASIS			V.Sacral			L.Acromium			R.Acromium			C7			L.Elbow			R.Elbow			L.Wrist.Lat			R.Wrist.Lat
		X1	Y1	Z1	X2	Y2	Z2	X3	Y3	Z3	X4	Y4	Z4	X5	Y5	Z5	X6	Y6	Z6	X7	Y7	Z7	X8	Y8	Z8	X9	Y9	Z9	X10	Y10	Z10	X11	Y11	Z11	X12	Y12	Z12	X13	Y13	Z13	X14	Y14	Z14	X15	Y15	Z15	X16	Y16	Z16	X17	Y17	Z17	X18	Y18	Z18	X19	Y19	Z19	X20	Y20	Z20	X21	Y21	Z21	X22	Y22	Z22	X23	Y23	Z23	X24	Y24	Z24

398	1.588	1.6456351	0.054703316	-0.26755464	0.94049105	0.038705621	0.014702387	1.5103925	0.068067706	-0.28960352	0.82499677	0.11803148	0.055766476	1.5235737	0.089742624	-0.20629598	0.85315529	0.12399046	-0.031563409	1.4511456	0.029914087	-0.24757566	0.76872971	0.11511525	0.011124907	1.4595588	0.44993944	-0.29854463	1.0826264	0.42834414	0.036500454	1.4813846	0.42954341	-0.1796991	1.1053198	0.41174559	-0.088001005	1.3017898	0.79903377	-0.33213645	1.1917124	0.82457683	0.048713378	1.3244027	0.90338938	-0.24666985	1.2799142	0.91237096	-0.0029935914	1.1090084	0.90889098	-0.17715312	1.2063233	1.3837631	-0.29379227	1.2269398	1.3755246	0.016324032	1.1412051	1.402012	-0.13777851	1.0740009	1.0656009	-0.31583229	1.2099946	1.0186212	0.098373113	1.0965859	0.87436151	-0.47560523	1.4543946	0.95534993	0.067452083
399	1.592	1.6475899	0.052225912	-0.26672613	0.94098414	0.038648808	0.014667425	1.5125445	0.068139651	-0.28936988	0.82754744	0.12048575	0.0558137	1.5256624	0.08968236	-0.20608924	0.85589882	0.12587388	-0.031281559	1.4522477	0.030942901	-0.24810088	0.77127032	0.11868689	0.011100003	1.4677601	0.45101136	-0.29900971	1.0880862	0.42780634	0.035901977	1.4891076	0.43083929	-0.1800195	1.1116499	0.41042957	-0.088443127	1.3075651	0.79952773	-0.33390323	1.1980736	0.82322122	0.047298093	1.3307057	0.90294023	-0.2483473	1.2866445	0.91103604	-0.0046210019	1.1152929	0.90847496	-0.17840044	1.2110899	1.3828927	-0.2958597	1.2327581	1.3750263	0.014402779	1.1465291	1.4012791	-0.13970971	1.0799164	1.0642189	-0.31724912	1.2167254	1.0178094	0.095580103	1.1022195	0.87278094	-0.47662348	1.4611687	0.95547643	0.063682167
400	1.596	1.6494302	0.049996617	-0.26605753	0.941507	0.038599755	0.014559305	1.5144891	0.068087827	-0.28915639	0.83050777	0.12301611	0.055693675	1.5275139	0.089552757	-0.20585748	0.85891804	0.12780282	-0.031056325	1.4532618	0.031784355	-0.24848006	0.77404495	0.12243624	0.010918642	1.4757373	0.4520341	-0.29940092	1.0939468	0.42722401	0.035238821	1.4966583	0.43219737	-0.18032322	1.1182014	0.40912551	-0.088909368	1.313164	0.80009971	-0.3357377	1.2045621	0.82183443	0.045841351	1.3370762	0.90269174	-0.25016029	1.2934376	0.90972115	-0.0063463693	1.1216611	0.90791199	-0.17965703	1.2159052	1.3820631	-0.297921	1.2386497	1.3745859	0.012428479	1.1518774	1.4005858	-0.14164187	1.0858353	1.0630743	-0.31873526	1.2233386	1.0170844	0.092773368	1.1078857	0.87125338	-0.47761762	1.4678003	0.95552026	0.060051596
401	1.6	1.6511625	0.048147806	-0.26578229	0.94204874	0.038540609	0.014406623	1.516134	0.067971537	-0.28893326	0.83380946	0.12561572	0.055368209	1.5290594	0.089352085	-0.20559849	0.86224353	0.12976809	-0.030888863	1.4541433	0.032428585	-0.24863185	0.77718794	0.12626561	0.010512855	1.4834328	0.4529545	-0.29969366	1.1001855	0.42661077	0.034527434	1.5040114	0.43358346	-0.18060631	1.1249829	0.40782354	-0.089394312	1.3186027	0.80070009	-0.33761063	1.2111751	0.8203956	0.044347237	1.3435131	0.90264535	-0.25209932	1.3002783	0.90842661	-0.0081517407	1.1282096	0.90729692	-0.18071894	1.2207716	1.3812748	-0.2999813	1.2445873	1.3742029	0.010410588	1.1572404	1.3999261	-0.14356668	1.0917634	1.062125	-0.32023457	1.2298129	1.016452	0.090007331	1.1135888	0.86978366	-0.47858301	1.4742958	0.95547551	0.056553156
402	1.604	1.6527442	0.046650772	-0.26594911	0.94261363	0.038459579	0.014247243	1.5174275	0.067859979	-0.28868104	0.83723826	0.12831643	0.054852148	1.5303167	0.089102613	-0.20532447	0.86590818	0.13175765	-0.030779839	1.4548688	0.032903328	-0.2485454	0.78074182	0.13015467	0.0098756346	1.4908	0.45372925	-0.2998788	1.1067724	0.42598288	0.033798862	1.5111237	0.43493587	-0.18085521	1.1320133	0.40651258	-0.089890521	1.3239092	0.80128497	-0.33948034	1.2178751	0.81889525	0.042830139	1.3499816	0.9028008	-0.25413775	1.3071482	0.90714867	-0.010028846	1.1346976	0.9067385	-0.18149777	1.2256897	1.3805338	-0.30204132	1.2505458	1.3738806	0.0083575776	1.1626127	1.3992956	-0.14546078	1.0977204	1.0612203	-0.32164113	1.2360797	1.015928	0.087385379	1.1193265	0.86837673	-0.4795173	1.4806629	0.95534587	0.053180924
403	1.608	1.6541317	0.045422125	-0.2663133	0.94321715	0.038354023	0.014081274	1.5183913	0.067788374	-0.28840465	0.84065817	0.1311651	0.054237057	1.5313564	0.088838591	-0.20504575	0.86994017	0.13375428	-0.030729467	1.4554445	0.033249945	-0.24829587	0.78467272	0.134149	0.0090477944	1.4978099	0.4543233	-0.29997292	1.1136793	0.42535169	0.033074766	1.5179437	0.43617084	-0.18106237	1.139314	0.40518038	-0.090387486	1.3291206	0.8018155	-0.34130938	1.2246129	0.81734928	0.041295157	1.3564309	0.90315068	-0.25624601	1.3140677	0.90588951	-0.011980859	1.1408226	0.90629301	-0.18207865	1.2306666	1.3798509	-0.30410153	1.2565149	1.3736205	0.0062707761	1.1679871	1.3987089	-0.14731307	1.1037258	1.0602508	-0.3228809	1.2420721	1.0155277	0.084994218	1.1250885	0.86703265	-0.48042428	1.4869034	0.95514069	0.049928982
404	1.612	1.6553286	0.044445156	-0.26651399	0.94387358	0.038225684	0.013875707	1.5191151	0.067745253	-0.28811106	0.84414635	0.13418856	0.053603251	1.5322402	0.088594915	-0.20475863	0.87435792	0.13573997	-0.030739903	1.4558906	0.03350079	-0.24798556	0.78896645	0.13826919	0.0080500706	1.504443	0.4547084	-0.30000894	1.1208818	0.42472119	0.032362064	1.5244193	0.43719866	-0.18123126	1.1469015	0.40381079	-0.090871852	1.334276	0.80225814	-0.34307731	1.231365	0.81578917	0.039730975	1.3628139	0.90366554	-0.25840549	1.3211129	0.90465176	-0.01404106	1.1465928	0.90594964	-0.18265126	1.2357096	1.3792432	-0.30616901	1.2624881	1.3734164	0.0041576443	1.1733488	1.3981798	-0.14914024	1.1097881	1.0592366	-0.32396663	1.247826	1.0152407	0.08277011	1.1308606	0.86574839	-0.48131114	1.4930147	0.95486548	0.046786626
405	1.616	1.6563546	0.043749018	-0.26634623	0.94460124	0.038079452	0.013609189	1.5196968	0.067701803	-0.28779508	0.84786091	0.13735893	0.052954488	1.5329904	0.088385887	-0.20445406	0.87917285	0.13769741	-0.030816311	1.4562288	0.033679024	-0.24767653	0.7936438	0.14249922	0.0068585595	1.5106783	0.45486001	-0.30001864	1.1283697	0.42409127	0.031664103	1.5305005	0.43794229	-0.18136741	1.1547826	0.40238176	-0.091336935	1.3394106	0.80258697	-0.34478281	1.2381405	0.8142483	0.038122268	1.3690954	0.90429443	-0.26061045	1.3283896	0.90342221	-0.016273811	1.1522534	0.90567986	-0.18335792	1.2408166	1.3787212	-0.30825225	1.2684634	1.3732577	0.0020321891	1.1786803	1.3976958	-0.15096899	1.115909	1.0582463	-0.32494581	1.2534625	1.0150278	0.080528636	1.1366328	0.86452303	-0.48218511	1.4989905	0.9545163	0.043743369
